<?xml version="1.0" encoding="utf-8"?>
<!-- Generator: Adobe Illustrator 22.1.0, SVG Export Plug-In . SVG Version: 6.00 Build 0)  -->
<svg version="1.1" id="Layer_1" xmlns="http://www.w3.org/2000/svg" xmlns:xlink="http://www.w3.org/1999/xlink" x="0px" y="0px"
	 viewBox="0 0 30 40" style="enable-background:new 0 0 30 40;" xml:space="preserve">
<style type="text/css">
	.st0{fill:#FFFFFF;}
</style>
<title>flogo-RGB-HEX-Blk-58</title>
<g>
	<path class="st0" d="M15,7.7c4,0,4.5,0,6.1,0.1c1.5,0.1,2.3,0.3,2.8,0.5c0.7,0.3,1.2,0.6,1.7,1.1s0.8,1,1.1,1.7
		c0.2,0.5,0.4,1.3,0.5,2.8c0.1,1.6,0.1,2.1,0.1,6.1s0,4.5-0.1,6.1c-0.1,1.5-0.3,2.3-0.5,2.8c-0.3,0.7-0.6,1.2-1.1,1.7
		s-1,0.8-1.7,1.1c-0.5,0.2-1.3,0.4-2.8,0.5c-1.6,0.1-2.1,0.1-6.1,0.1s-4.5,0-6.1-0.1c-1.5-0.1-2.3-0.3-2.8-0.5
		c-0.7-0.3-1.2-0.6-1.7-1.1s-0.8-1-1.1-1.7c-0.2-0.5-0.4-1.3-0.5-2.8C2.7,24.5,2.7,24,2.7,20s0-4.5,0.1-6.1c0.1-1.5,0.3-2.3,0.5-2.8
		c0.3-0.7,0.6-1.2,1.1-1.7s1-0.8,1.7-1.1c0.5-0.2,1.3-0.4,2.8-0.5C10.5,7.7,11,7.7,15,7.7 M15,5c-4.1,0-4.6,0-6.2,0.1
		S6.1,5.4,5.2,5.8c-1,0.4-1.8,0.9-2.7,1.7c-0.8,0.8-1.3,1.7-1.7,2.7s-0.6,2-0.7,3.6C0,15.4,0,15.9,0,20s0,4.6,0.1,6.2
		s0.3,2.7,0.7,3.6c0.4,1,0.9,1.8,1.7,2.7c0.8,0.8,1.7,1.3,2.7,1.7s2,0.6,3.6,0.7C10.4,35,10.9,35,15,35s4.6,0,6.2-0.1
		s2.7-0.3,3.6-0.7c1-0.4,1.8-0.9,2.7-1.7c0.8-0.8,1.3-1.7,1.7-2.7c0.4-1,0.6-2,0.7-3.6C30,24.6,30,24.1,30,20s0-4.6-0.1-6.2
		s-0.3-2.7-0.7-3.6c-0.4-1-0.9-1.8-1.7-2.7c-0.8-0.8-1.7-1.3-2.7-1.7c-1-0.4-2-0.6-3.6-0.7C19.6,5,19.1,5,15,5L15,5z"/>
	<path class="st0" d="M15,12.3c-4.3,0-7.7,3.4-7.7,7.7s3.4,7.7,7.7,7.7s7.7-3.4,7.7-7.7S19.3,12.3,15,12.3z M15,25c-2.8,0-5-2.2-5-5
		s2.2-5,5-5s5,2.2,5,5S17.8,25,15,25z"/>
	<circle class="st0" cx="23" cy="12" r="1.8"/>
</g>
</svg>
