<?xml version="1.0" encoding="utf-8"?>
<!-- Generator: Adobe Illustrator 22.1.0, SVG Export Plug-In . SVG Version: 6.00 Build 0)  -->
<svg version="1.1" id="Layer_1" xmlns="http://www.w3.org/2000/svg" xmlns:xlink="http://www.w3.org/1999/xlink" x="0px" y="0px"
	 viewBox="0 0 66 44" style="enable-background:new 0 0 66 44;" xml:space="preserve">
<style type="text/css">
	.st0{fill:#FFFFFF;}
</style>
<g>
	<g>
		<rect x="25.6" y="2" class="st0" width="6.1" height="6.4"/>
		<rect x="34.1" y="2" class="st0" width="6.1" height="6.4"/>
		<path class="st0" d="M61.7,5.4C58.9,3.1,55.2,2,50.5,2h-4.2v6.4h4.6c2.8,0,5,0.6,6.5,1.8c1.5,1.2,2.3,3,2.3,5.4
			c0,2.5-0.8,4.3-2.4,5.5c-1.6,1.1-3.9,1.7-7.1,1.7h-4.7c-5.9,0-8.9-2.6-9.1-7.7v-3.7H33h-3.5v3.7c-0.2,5.1-3.2,7.7-9.1,7.7h-4.7
			c-3.2,0-5.5-0.6-7.1-1.7c-1.6-1.1-2.4-3-2.4-5.5c0-2.5,0.8-4.3,2.3-5.4c1.5-1.2,3.7-1.8,6.5-1.8h4.6V2h-4.2
			C10.8,2,7.1,3.1,4.3,5.4C1.4,7.6,0,11.1,0,15.8c0,4.7,1.4,8.2,4.2,10.5c2.8,2.2,6.6,3.4,11.3,3.4h4.7c3.1,0,5.7-0.6,7.9-1.8
			c2.2-1.2,3.8-3.1,4.8-5.7c0,0,0,0,0,0.1c0,0,0,0,0-0.1c1,2.6,2.6,4.5,4.8,5.7c2.2,1.2,4.8,1.8,7.9,1.8h4.7c4.7,0,8.5-1.1,11.3-3.4
			C64.6,24,66,20.5,66,15.8C66,11.1,64.6,7.6,61.7,5.4z"/>
	</g>
	<g>
		<path class="st0" d="M10,36.7h1.8V38H10v3.7H8.6v-9h3.7V34H10V36.7z"/>
		<path class="st0" d="M13,32.7h1.4v9H13V32.7z"/>
		<path class="st0" d="M16.7,35.2v6.5h-1.3v-9h1.8l1.4,5.4v-5.4h1.3v9h-1.4L16.7,35.2z"/>
		<path class="st0" d="M25.5,41.7h-1.4l-0.2-1.6h-1.7l-0.2,1.6h-1.3l1.4-9h2.1L25.5,41.7z M22.3,38.9h1.4L23,34.3L22.3,38.9z"/>
		<path class="st0" d="M26.2,32.7h1.4v7.7h2.3v1.3h-3.7V32.7z"/>
		<path class="st0" d="M34.6,32.7c0.7,0,1.3,0.2,1.6,0.5c0.3,0.3,0.5,0.9,0.5,1.6v0.3c0,0.5-0.1,0.8-0.2,1.1
			c-0.1,0.3-0.4,0.5-0.7,0.7c0.4,0.1,0.7,0.4,0.8,0.7s0.2,0.7,0.2,1.2v0.7c0,0.7-0.2,1.2-0.5,1.6c-0.4,0.4-0.9,0.5-1.6,0.5h-2.2v-9
			H34.6z M33.9,34v2.4h0.6c0.3,0,0.5-0.1,0.6-0.2c0.1-0.1,0.2-0.4,0.2-0.7v-0.5c0-0.3-0.1-0.6-0.2-0.7S34.8,34,34.6,34H33.9z
			 M33.9,37.7v2.8h0.8c0.2,0,0.4-0.1,0.5-0.2c0.1-0.1,0.2-0.4,0.2-0.7v-0.8c0-0.4-0.1-0.7-0.2-0.9c-0.1-0.2-0.4-0.2-0.7-0.2H33.9z"
			/>
		<path class="st0" d="M42.3,41.7h-1.4l-0.2-1.6h-1.7l-0.2,1.6h-1.3l1.4-9h2.1L42.3,41.7z M39.1,38.9h1.4l-0.7-4.5L39.1,38.9z"/>
		<path class="st0" d="M45.9,41.7c0-0.1,0-0.1-0.1-0.2c0-0.1,0-0.1,0-0.2c0-0.1,0-0.2,0-0.3c0-0.1,0-0.3,0-0.4v-1.4
			c0-0.4-0.1-0.7-0.2-0.9s-0.4-0.3-0.7-0.3h-0.5v3.7h-1.4v-9h2.1c0.7,0,1.3,0.2,1.6,0.5c0.3,0.3,0.5,0.9,0.5,1.6v0.7
			c0,0.9-0.3,1.5-0.9,1.8c0.4,0.1,0.6,0.4,0.7,0.7s0.2,0.7,0.2,1.2v1.4c0,0.2,0,0.4,0,0.6s0.1,0.3,0.1,0.5H45.9z M44.3,34v2.8h0.6
			c0.3,0,0.5-0.1,0.6-0.2c0.1-0.1,0.2-0.4,0.2-0.7v-0.9c0-0.3-0.1-0.6-0.2-0.7S45.3,34,45,34H44.3z"/>
		<path class="st0" d="M48.1,32.7h2.2c0.7,0,1.2,0.2,1.6,0.6s0.5,0.9,0.5,1.7v4.5c0,0.7-0.2,1.3-0.5,1.7s-0.9,0.6-1.6,0.6h-2.2V32.7
			z M49.5,34v6.4h0.8c0.2,0,0.4-0.1,0.5-0.2c0.1-0.1,0.2-0.4,0.2-0.7v-4.7c0-0.3-0.1-0.6-0.2-0.7c-0.1-0.1-0.3-0.2-0.5-0.2H49.5z"/>
		<path class="st0" d="M53.2,34.9c0-0.7,0.2-1.3,0.6-1.7c0.4-0.4,0.9-0.6,1.6-0.6c0.7,0,1.2,0.2,1.6,0.6c0.4,0.4,0.6,0.9,0.6,1.7
			v4.7c0,0.7-0.2,1.3-0.6,1.7c-0.4,0.4-0.9,0.6-1.6,0.6c-0.7,0-1.2-0.2-1.6-0.6c-0.4-0.4-0.6-0.9-0.6-1.7V34.9z M54.6,39.6
			c0,0.3,0.1,0.6,0.2,0.7s0.3,0.2,0.5,0.2s0.4-0.1,0.5-0.2s0.2-0.4,0.2-0.7v-4.8c0-0.3-0.1-0.6-0.2-0.7s-0.3-0.2-0.5-0.2
			S55,34,54.8,34.1s-0.2,0.4-0.2,0.7V39.6z"/>
	</g>
</g>
</svg>
