<?xml version="1.0" encoding="utf-8"?>
<!-- Generator: Adobe Illustrator 22.1.0, SVG Export Plug-In . SVG Version: 6.00 Build 0)  -->
<svg version="1.1" id="Layer_1" xmlns="http://www.w3.org/2000/svg" xmlns:xlink="http://www.w3.org/1999/xlink" x="0px" y="0px"
	 viewBox="0 0 30 40" style="enable-background:new 0 0 30 40;" xml:space="preserve">
<style type="text/css">
	.st0{fill:#FFFFFF;}
</style>
<title>flogo-RGB-HEX-Blk-58</title>
<g id="Logo__x2014__FIXED">
	<g>
		<path class="st0" d="M9.4,33.2c11.3,0,17.5-9.4,17.5-17.5c0-0.3,0-0.5,0-0.8c1.2-0.9,2.2-2,3.1-3.2c-1.1,0.5-2.3,0.8-3.5,1
			c1.3-0.8,2.2-2,2.7-3.4c-1.2,0.7-2.5,1.2-3.9,1.5c-1.1-1.2-2.7-1.9-4.5-1.9c-3.4,0-6.2,2.8-6.2,6.2c0,0.5,0.1,0.9,0.2,1.4
			c-5.1-0.3-9.7-2.7-12.7-6.4c-0.5,0.9-0.8,2-0.8,3.1c0,2.1,1.1,4,2.7,5.1c-1,0-2-0.3-2.8-0.8c0,0,0,0,0,0.1c0,3,2.1,5.5,4.9,6
			c-0.5,0.1-1.1,0.2-1.6,0.2c-0.4,0-0.8,0-1.2-0.1c0.8,2.4,3.1,4.2,5.8,4.3c-2.1,1.7-4.8,2.6-7.6,2.6c-0.5,0-1,0-1.5-0.1
			C2.7,32.2,6,33.2,9.4,33.2"/>
	</g>
</g>
</svg>
